<svg width="60" height="60" viewBox="0 0 60 60" fill="none" xmlns="http://www.w3.org/2000/svg">
<path d="M16.0811 21.164C26.2261 8.64937 45.1961 6.2774 58.443 15.8629C58.9843 16.2477 59.4952 16.6555 59.9939 17.069C59.9818 17.0518 59.9696 17.0346 59.9635 17.0173C48.2554 4.58888 28.1967 2.69934 14.0862 13.0487C5.20628 19.5731 0.723771 29.4515 1.08262 39.3185C3.69792 46.8881 9.40902 53.1425 16.8109 56.7263C7.99797 46.7158 7.3411 31.9384 16.0811 21.164ZM11.331 9.70039C26.0436 -1.09697 47.2337 1.41285 58.6619 15.3058C59.1181 15.8572 59.5438 16.4258 59.9513 17.0001C54.818 6.94362 43.9189 0 31.3046 0C15.6189 0 2.59098 10.7342 0 24.8454C2.02534 19.0447 5.83274 13.7322 11.331 9.70039ZM35.3431 30.0144C35.3431 25.5289 37.411 21.5086 40.6771 18.7173C31.3289 24.162 25.4658 34.2357 26.4024 45.2857C26.8708 50.8165 28.9934 55.8534 32.2595 60C44.5028 59.6611 55.0066 52.8037 60 42.9597C57.5307 44.4127 54.6234 45.2685 51.4972 45.2685C42.5748 45.2685 35.3431 38.4397 35.3431 30.0144ZM48.9062 14.9842C49.7456 14.8521 50.6092 14.7717 51.4911 14.7717C51.6675 14.7717 51.85 14.7832 52.0264 14.7889C52.0568 14.7889 52.0811 14.7832 52.1054 14.7832C52.0933 14.7889 52.0811 14.7889 52.075 14.7889C54.9823 14.8923 57.6766 15.7136 59.9939 17.0748C46.8566 8.81018 29.0177 11.4751 19.2803 23.4785C10.9356 33.7647 11.1668 47.6922 18.8728 57.651C21.6949 58.7824 24.7238 59.5405 27.8926 59.8622C24.8211 55.8017 22.8444 50.9256 22.3822 45.5901C21.0806 30.2613 32.8738 16.7933 48.9062 14.9842Z" fill="#E50012"/>
</svg>
