<svg width="192" height="192" viewBox="0 0 192 192" fill="none" xmlns="http://www.w3.org/2000/svg">
<path d="M51.4595 67.7247C83.9234 27.678 144.628 20.0877 187.018 50.7614C188.75 51.9927 190.385 53.2976 191.981 54.6208C191.942 54.5657 191.903 54.5106 191.883 54.4554C154.417 14.6844 90.2293 8.63789 45.0757 41.7559C16.6601 62.6339 2.31607 94.2449 3.46437 125.819C11.8334 150.042 30.1089 170.056 53.795 181.524C25.5935 149.491 23.4915 102.203 51.4595 67.7247ZM36.2591 31.0413C83.3395 -3.51029 151.148 4.52111 187.718 48.9787C189.178 50.743 190.54 52.5625 191.844 54.4003C175.418 22.2196 140.54 0 100.175 0C49.9803 0 8.29113 34.3494 0 79.5053C6.48109 60.9431 18.6648 43.943 36.2591 31.0413ZM113.098 96.046C113.098 81.6924 119.715 68.8274 130.167 59.8955C100.253 77.3183 81.4905 109.554 84.4878 144.914C85.9864 162.613 92.7789 178.731 103.23 192C142.409 190.916 176.021 168.972 192 137.471C184.098 142.121 174.795 144.859 164.791 144.859C136.239 144.859 113.098 123.007 113.098 96.046ZM156.5 47.9495C159.186 47.5268 161.95 47.2695 164.772 47.2695C165.336 47.2695 165.92 47.3062 166.484 47.3246C166.582 47.3246 166.66 47.3062 166.737 47.3062C166.698 47.3246 166.66 47.3246 166.64 47.3246C175.943 47.6554 184.565 50.2835 191.981 54.6392C149.941 28.1926 92.8568 36.7202 61.6969 75.1312C34.994 108.047 35.7336 152.615 60.3929 184.483C69.4236 188.104 79.1161 190.53 89.2562 191.559C79.4275 178.565 73.1021 162.962 71.6229 145.888C67.4579 96.8362 105.196 53.7387 156.5 47.9495Z" fill="url(#paint0_linear_15_20)"/>
<defs>
<linearGradient id="paint0_linear_15_20" x1="-5.12918e-06" y1="137.6" x2="169.6" y2="60.8" gradientUnits="userSpaceOnUse">
<stop offset="0.322917" stop-color="#233467"/>
<stop offset="1" stop-color="#6D5D91" stop-opacity="0.37"/>
</linearGradient>
</defs>
</svg>
